<mxfile host="app.diagrams.net" modified="2022-03-23T13:04:38.798Z" agent="5.0 (Macintosh; Intel Mac OS X 10_15_7) AppleWebKit/537.36 (KHTML, like Gecko) Chrome/99.0.4844.83 Safari/537.36" etag="Ss8zsPp8hlB0vCVNvQ81" version="17.1.3" type="github">
  <diagram id="-TsFaH89Y6JF8rdivMGv" name="第 1 页">
    <mxGraphModel dx="1694" dy="475" grid="1" gridSize="10" guides="1" tooltips="1" connect="1" arrows="1" fold="1" page="1" pageScale="1" pageWidth="827" pageHeight="1169" math="0" shadow="0">
      <root>
        <mxCell id="0" />
        <mxCell id="1" parent="0" />
        <mxCell id="-ILTjVAUCFsbDCht_4rs-28" style="edgeStyle=orthogonalEdgeStyle;rounded=0;orthogonalLoop=1;jettySize=auto;html=1;entryX=0.5;entryY=1;entryDx=0;entryDy=0;strokeWidth=2;gradientColor=#7ea6e0;fillColor=#dae8fc;strokeColor=#6c8ebf;" parent="1" source="-ILTjVAUCFsbDCht_4rs-26" target="-ILTjVAUCFsbDCht_4rs-25" edge="1">
          <mxGeometry relative="1" as="geometry" />
        </mxCell>
        <mxCell id="-ILTjVAUCFsbDCht_4rs-26" value="&amp;nbsp;网络接口层" style="rounded=1;whiteSpace=wrap;html=1;shadow=0;fontSize=16;fillColor=#f9f7ed;align=left;strokeColor=none;" parent="1" vertex="1">
          <mxGeometry x="-120" y="750" width="560" height="90" as="geometry" />
        </mxCell>
        <mxCell id="-ILTjVAUCFsbDCht_4rs-29" style="edgeStyle=orthogonalEdgeStyle;rounded=0;orthogonalLoop=1;jettySize=auto;html=1;entryX=0.5;entryY=1;entryDx=0;entryDy=0;strokeWidth=2;gradientColor=#7ea6e0;fillColor=#dae8fc;strokeColor=#6c8ebf;" parent="1" source="-ILTjVAUCFsbDCht_4rs-25" target="-ILTjVAUCFsbDCht_4rs-21" edge="1">
          <mxGeometry relative="1" as="geometry" />
        </mxCell>
        <mxCell id="-ILTjVAUCFsbDCht_4rs-25" value="&amp;nbsp; &amp;nbsp; 网络层" style="rounded=1;whiteSpace=wrap;html=1;shadow=0;fontSize=16;fillColor=#f9f7ed;align=left;strokeColor=none;" parent="1" vertex="1">
          <mxGeometry x="-120" y="600" width="560" height="90" as="geometry" />
        </mxCell>
        <mxCell id="-ILTjVAUCFsbDCht_4rs-30" style="edgeStyle=orthogonalEdgeStyle;rounded=0;orthogonalLoop=1;jettySize=auto;html=1;entryX=0.5;entryY=1;entryDx=0;entryDy=0;strokeWidth=2;gradientColor=#7ea6e0;fillColor=#dae8fc;strokeColor=#6c8ebf;" parent="1" source="-ILTjVAUCFsbDCht_4rs-21" target="-ILTjVAUCFsbDCht_4rs-18" edge="1">
          <mxGeometry relative="1" as="geometry" />
        </mxCell>
        <mxCell id="-ILTjVAUCFsbDCht_4rs-21" value="&amp;nbsp; &amp;nbsp; 传输层" style="rounded=1;whiteSpace=wrap;html=1;shadow=0;fontSize=16;fillColor=#f9f7ed;align=left;strokeColor=none;" parent="1" vertex="1">
          <mxGeometry x="-120" y="440" width="560" height="90" as="geometry" />
        </mxCell>
        <mxCell id="-ILTjVAUCFsbDCht_4rs-31" style="edgeStyle=orthogonalEdgeStyle;rounded=0;orthogonalLoop=1;jettySize=auto;html=1;entryX=0.5;entryY=1;entryDx=0;entryDy=0;strokeWidth=2;gradientColor=#7ea6e0;fillColor=#dae8fc;strokeColor=#6c8ebf;" parent="1" source="-ILTjVAUCFsbDCht_4rs-18" target="-ILTjVAUCFsbDCht_4rs-13" edge="1">
          <mxGeometry relative="1" as="geometry" />
        </mxCell>
        <mxCell id="-ILTjVAUCFsbDCht_4rs-18" value="&amp;nbsp; &amp;nbsp; socket 层" style="rounded=1;whiteSpace=wrap;html=1;shadow=0;fontSize=16;fillColor=#f9f7ed;align=left;strokeColor=none;" parent="1" vertex="1">
          <mxGeometry x="-120" y="280" width="560" height="90" as="geometry" />
        </mxCell>
        <mxCell id="-ILTjVAUCFsbDCht_4rs-20" value="缓冲区" style="rounded=0;whiteSpace=wrap;html=1;fontSize=16;shadow=0;fillColor=#fff2cc;strokeColor=#d6b656;align=left;" parent="1" vertex="1">
          <mxGeometry x="210" y="290" width="204" height="70" as="geometry" />
        </mxCell>
        <mxCell id="-ILTjVAUCFsbDCht_4rs-13" value="&amp;nbsp; &amp;nbsp; &amp;nbsp;应用层" style="rounded=1;whiteSpace=wrap;html=1;shadow=0;fontSize=16;fillColor=#f9f7ed;align=left;strokeColor=none;" parent="1" vertex="1">
          <mxGeometry x="-120" y="140" width="560" height="90" as="geometry" />
        </mxCell>
        <mxCell id="-ILTjVAUCFsbDCht_4rs-2" value="应用数据" style="rounded=0;whiteSpace=wrap;html=1;fontSize=16;shadow=0;fillColor=#d5e8d4;strokeColor=#82b366;" parent="1" vertex="1">
          <mxGeometry x="290" y="155" width="120" height="60" as="geometry" />
        </mxCell>
        <mxCell id="-ILTjVAUCFsbDCht_4rs-3" value="应用数据" style="rounded=0;whiteSpace=wrap;html=1;fontSize=16;shadow=0;fillColor=#d5e8d4;strokeColor=#82b366;" parent="1" vertex="1">
          <mxGeometry x="300" y="455" width="120" height="60" as="geometry" />
        </mxCell>
        <mxCell id="-ILTjVAUCFsbDCht_4rs-4" value="TCP 头" style="rounded=0;whiteSpace=wrap;html=1;fontSize=16;shadow=0;fillColor=#dae8fc;strokeColor=#6c8ebf;" parent="1" vertex="1">
          <mxGeometry x="180" y="455" width="120" height="60" as="geometry" />
        </mxCell>
        <mxCell id="-ILTjVAUCFsbDCht_4rs-5" value="应用数据" style="rounded=0;whiteSpace=wrap;html=1;fontSize=16;shadow=0;fillColor=#d5e8d4;strokeColor=#82b366;" parent="1" vertex="1">
          <mxGeometry x="300" y="615" width="120" height="60" as="geometry" />
        </mxCell>
        <mxCell id="-ILTjVAUCFsbDCht_4rs-6" value="TCP 头" style="rounded=0;whiteSpace=wrap;html=1;fontSize=16;shadow=0;fillColor=#dae8fc;strokeColor=#6c8ebf;" parent="1" vertex="1">
          <mxGeometry x="180" y="615" width="120" height="60" as="geometry" />
        </mxCell>
        <mxCell id="-ILTjVAUCFsbDCht_4rs-7" value="IP 头" style="rounded=0;whiteSpace=wrap;html=1;fontSize=16;shadow=0;fillColor=#ffe6cc;strokeColor=#d79b00;" parent="1" vertex="1">
          <mxGeometry x="60" y="615" width="120" height="60" as="geometry" />
        </mxCell>
        <mxCell id="-ILTjVAUCFsbDCht_4rs-8" value="应用数据" style="rounded=0;whiteSpace=wrap;html=1;fontSize=16;shadow=0;fillColor=#d5e8d4;strokeColor=#82b366;" parent="1" vertex="1">
          <mxGeometry x="260" y="765" width="120" height="60" as="geometry" />
        </mxCell>
        <mxCell id="-ILTjVAUCFsbDCht_4rs-9" value="TCP 头" style="rounded=0;whiteSpace=wrap;html=1;fontSize=16;shadow=0;fillColor=#dae8fc;strokeColor=#6c8ebf;" parent="1" vertex="1">
          <mxGeometry x="140" y="765" width="120" height="60" as="geometry" />
        </mxCell>
        <mxCell id="-ILTjVAUCFsbDCht_4rs-10" value="IP 头" style="rounded=0;whiteSpace=wrap;html=1;fontSize=16;shadow=0;fillColor=#ffe6cc;strokeColor=#d79b00;" parent="1" vertex="1">
          <mxGeometry x="20" y="765" width="120" height="60" as="geometry" />
        </mxCell>
        <mxCell id="-ILTjVAUCFsbDCht_4rs-11" value="帧头" style="rounded=0;whiteSpace=wrap;html=1;fontSize=16;shadow=0;fillColor=#e1d5e7;strokeColor=#9673a6;" parent="1" vertex="1">
          <mxGeometry x="-20" y="765" width="40" height="60" as="geometry" />
        </mxCell>
        <mxCell id="-ILTjVAUCFsbDCht_4rs-12" value="帧尾" style="rounded=0;whiteSpace=wrap;html=1;fontSize=16;shadow=0;fillColor=#e1d5e7;strokeColor=#9673a6;" parent="1" vertex="1">
          <mxGeometry x="380" y="765" width="40" height="60" as="geometry" />
        </mxCell>
        <mxCell id="-ILTjVAUCFsbDCht_4rs-19" value="应用数据" style="rounded=0;whiteSpace=wrap;html=1;fontSize=16;shadow=0;fillColor=#d5e8d4;strokeColor=#82b366;" parent="1" vertex="1">
          <mxGeometry x="280" y="300" width="120" height="50" as="geometry" />
        </mxCell>
        <mxCell id="-ILTjVAUCFsbDCht_4rs-67" style="edgeStyle=orthogonalEdgeStyle;rounded=0;orthogonalLoop=1;jettySize=auto;html=1;entryX=0.5;entryY=0;entryDx=0;entryDy=0;fontSize=18;strokeWidth=2;gradientColor=#d5739d;fillColor=#e6d0de;strokeColor=#996185;" parent="1" source="-ILTjVAUCFsbDCht_4rs-34" target="-ILTjVAUCFsbDCht_4rs-64" edge="1">
          <mxGeometry relative="1" as="geometry" />
        </mxCell>
        <mxCell id="-ILTjVAUCFsbDCht_4rs-34" value="&amp;nbsp;网络接口层" style="rounded=1;whiteSpace=wrap;html=1;shadow=0;fontSize=16;fillColor=#f9f7ed;align=left;strokeColor=none;" parent="1" vertex="1">
          <mxGeometry x="610" y="745" width="560" height="90" as="geometry" />
        </mxCell>
        <mxCell id="-ILTjVAUCFsbDCht_4rs-82" style="edgeStyle=orthogonalEdgeStyle;rounded=0;orthogonalLoop=1;jettySize=auto;html=1;strokeWidth=2;fillColor=#e6d0de;fontSize=16;gradientColor=#d5739d;strokeColor=#996185;" parent="1" source="-ILTjVAUCFsbDCht_4rs-36" target="-ILTjVAUCFsbDCht_4rs-34" edge="1">
          <mxGeometry relative="1" as="geometry" />
        </mxCell>
        <mxCell id="-ILTjVAUCFsbDCht_4rs-36" value="&amp;nbsp; &amp;nbsp; 网络层" style="rounded=1;whiteSpace=wrap;html=1;shadow=0;fontSize=16;fillColor=#f9f7ed;align=left;strokeColor=none;" parent="1" vertex="1">
          <mxGeometry x="610" y="595" width="560" height="90" as="geometry" />
        </mxCell>
        <mxCell id="-ILTjVAUCFsbDCht_4rs-58" style="edgeStyle=orthogonalEdgeStyle;rounded=0;orthogonalLoop=1;jettySize=auto;html=1;entryX=0.5;entryY=0;entryDx=0;entryDy=0;gradientColor=#d5739d;fillColor=#e6d0de;strokeColor=#996185;strokeWidth=2;" parent="1" source="-ILTjVAUCFsbDCht_4rs-38" target="-ILTjVAUCFsbDCht_4rs-36" edge="1">
          <mxGeometry relative="1" as="geometry" />
        </mxCell>
        <mxCell id="-ILTjVAUCFsbDCht_4rs-38" value="&amp;nbsp; &amp;nbsp; 传输层" style="rounded=1;whiteSpace=wrap;html=1;shadow=0;fontSize=16;fillColor=#f9f7ed;align=left;strokeColor=none;" parent="1" vertex="1">
          <mxGeometry x="610" y="435" width="560" height="90" as="geometry" />
        </mxCell>
        <mxCell id="-ILTjVAUCFsbDCht_4rs-56" style="edgeStyle=orthogonalEdgeStyle;rounded=0;orthogonalLoop=1;jettySize=auto;html=1;entryX=0.5;entryY=0;entryDx=0;entryDy=0;gradientColor=#d5739d;fillColor=#e6d0de;strokeColor=#996185;strokeWidth=2;" parent="1" source="-ILTjVAUCFsbDCht_4rs-40" target="-ILTjVAUCFsbDCht_4rs-38" edge="1">
          <mxGeometry relative="1" as="geometry" />
        </mxCell>
        <mxCell id="-ILTjVAUCFsbDCht_4rs-40" value="&amp;nbsp; &amp;nbsp; socket 层" style="rounded=1;whiteSpace=wrap;html=1;shadow=0;fontSize=16;fillColor=#f9f7ed;align=left;strokeColor=none;" parent="1" vertex="1">
          <mxGeometry x="610" y="275" width="560" height="90" as="geometry" />
        </mxCell>
        <mxCell id="-ILTjVAUCFsbDCht_4rs-41" value="缓冲区" style="rounded=0;whiteSpace=wrap;html=1;fontSize=16;shadow=0;fillColor=#fff2cc;strokeColor=#d6b656;align=left;" parent="1" vertex="1">
          <mxGeometry x="940" y="285" width="204" height="70" as="geometry" />
        </mxCell>
        <mxCell id="-ILTjVAUCFsbDCht_4rs-55" style="edgeStyle=orthogonalEdgeStyle;rounded=0;orthogonalLoop=1;jettySize=auto;html=1;gradientColor=#d5739d;fillColor=#e6d0de;strokeColor=#996185;strokeWidth=2;" parent="1" source="-ILTjVAUCFsbDCht_4rs-42" target="-ILTjVAUCFsbDCht_4rs-40" edge="1">
          <mxGeometry relative="1" as="geometry" />
        </mxCell>
        <mxCell id="-ILTjVAUCFsbDCht_4rs-42" value="&amp;nbsp; &amp;nbsp; &amp;nbsp;应用层" style="rounded=1;whiteSpace=wrap;html=1;shadow=0;fontSize=16;fillColor=#f9f7ed;align=left;strokeColor=none;" parent="1" vertex="1">
          <mxGeometry x="610" y="135" width="560" height="90" as="geometry" />
        </mxCell>
        <mxCell id="-ILTjVAUCFsbDCht_4rs-43" value="应用数据" style="rounded=0;whiteSpace=wrap;html=1;fontSize=16;shadow=0;fillColor=#d5e8d4;strokeColor=#82b366;" parent="1" vertex="1">
          <mxGeometry x="1020" y="150" width="120" height="60" as="geometry" />
        </mxCell>
        <mxCell id="-ILTjVAUCFsbDCht_4rs-44" value="应用数据" style="rounded=0;whiteSpace=wrap;html=1;fontSize=16;shadow=0;fillColor=#d5e8d4;strokeColor=#82b366;" parent="1" vertex="1">
          <mxGeometry x="1030" y="450" width="120" height="60" as="geometry" />
        </mxCell>
        <mxCell id="-ILTjVAUCFsbDCht_4rs-45" value="TCP 头" style="rounded=0;whiteSpace=wrap;html=1;fontSize=16;shadow=0;fillColor=#dae8fc;strokeColor=#6c8ebf;" parent="1" vertex="1">
          <mxGeometry x="910" y="450" width="120" height="60" as="geometry" />
        </mxCell>
        <mxCell id="-ILTjVAUCFsbDCht_4rs-46" value="应用数据" style="rounded=0;whiteSpace=wrap;html=1;fontSize=16;shadow=0;fillColor=#d5e8d4;strokeColor=#82b366;" parent="1" vertex="1">
          <mxGeometry x="1030" y="610" width="120" height="60" as="geometry" />
        </mxCell>
        <mxCell id="-ILTjVAUCFsbDCht_4rs-47" value="TCP 头" style="rounded=0;whiteSpace=wrap;html=1;fontSize=16;shadow=0;fillColor=#dae8fc;strokeColor=#6c8ebf;" parent="1" vertex="1">
          <mxGeometry x="910" y="610" width="120" height="60" as="geometry" />
        </mxCell>
        <mxCell id="-ILTjVAUCFsbDCht_4rs-48" value="IP 头" style="rounded=0;whiteSpace=wrap;html=1;fontSize=16;shadow=0;fillColor=#ffe6cc;strokeColor=#d79b00;" parent="1" vertex="1">
          <mxGeometry x="790" y="610" width="120" height="60" as="geometry" />
        </mxCell>
        <mxCell id="-ILTjVAUCFsbDCht_4rs-49" value="应用数据" style="rounded=0;whiteSpace=wrap;html=1;fontSize=16;shadow=0;fillColor=#d5e8d4;strokeColor=#82b366;" parent="1" vertex="1">
          <mxGeometry x="990" y="760" width="120" height="60" as="geometry" />
        </mxCell>
        <mxCell id="-ILTjVAUCFsbDCht_4rs-50" value="TCP 头" style="rounded=0;whiteSpace=wrap;html=1;fontSize=16;shadow=0;fillColor=#dae8fc;strokeColor=#6c8ebf;" parent="1" vertex="1">
          <mxGeometry x="870" y="760" width="120" height="60" as="geometry" />
        </mxCell>
        <mxCell id="-ILTjVAUCFsbDCht_4rs-51" value="IP 头" style="rounded=0;whiteSpace=wrap;html=1;fontSize=16;shadow=0;fillColor=#ffe6cc;strokeColor=#d79b00;" parent="1" vertex="1">
          <mxGeometry x="750" y="760" width="120" height="60" as="geometry" />
        </mxCell>
        <mxCell id="-ILTjVAUCFsbDCht_4rs-52" value="帧头" style="rounded=0;whiteSpace=wrap;html=1;fontSize=16;shadow=0;fillColor=#e1d5e7;strokeColor=#9673a6;" parent="1" vertex="1">
          <mxGeometry x="710" y="760" width="40" height="60" as="geometry" />
        </mxCell>
        <mxCell id="-ILTjVAUCFsbDCht_4rs-53" value="帧尾" style="rounded=0;whiteSpace=wrap;html=1;fontSize=16;shadow=0;fillColor=#e1d5e7;strokeColor=#9673a6;" parent="1" vertex="1">
          <mxGeometry x="1110" y="760" width="40" height="60" as="geometry" />
        </mxCell>
        <mxCell id="-ILTjVAUCFsbDCht_4rs-54" value="应用数据" style="rounded=0;whiteSpace=wrap;html=1;fontSize=16;shadow=0;fillColor=#d5e8d4;strokeColor=#82b366;" parent="1" vertex="1">
          <mxGeometry x="1010" y="295" width="120" height="50" as="geometry" />
        </mxCell>
        <mxCell id="-ILTjVAUCFsbDCht_4rs-59" value="socket 接口" style="text;html=1;align=center;verticalAlign=middle;resizable=0;points=[];autosize=1;fontSize=18;fontStyle=1" parent="1" vertex="1">
          <mxGeometry x="220" y="245" width="110" height="30" as="geometry" />
        </mxCell>
        <mxCell id="-ILTjVAUCFsbDCht_4rs-60" value="socket 接口" style="text;html=1;align=center;verticalAlign=middle;resizable=0;points=[];autosize=1;fontSize=18;fontStyle=1" parent="1" vertex="1">
          <mxGeometry x="970" y="230" width="110" height="30" as="geometry" />
        </mxCell>
        <mxCell id="-ILTjVAUCFsbDCht_4rs-63" style="edgeStyle=orthogonalEdgeStyle;rounded=0;orthogonalLoop=1;jettySize=auto;html=1;entryX=0.5;entryY=1;entryDx=0;entryDy=0;fontSize=18;strokeWidth=2;gradientColor=#7ea6e0;fillColor=#dae8fc;strokeColor=#6c8ebf;" parent="1" source="-ILTjVAUCFsbDCht_4rs-61" target="-ILTjVAUCFsbDCht_4rs-26" edge="1">
          <mxGeometry relative="1" as="geometry" />
        </mxCell>
        <mxCell id="-ILTjVAUCFsbDCht_4rs-61" value="" style="ellipse;whiteSpace=wrap;html=1;aspect=fixed;shadow=0;fontSize=18;align=left;gradientColor=#7ea6e0;fillColor=#dae8fc;strokeColor=#6c8ebf;" parent="1" vertex="1">
          <mxGeometry x="95" y="890" width="130" height="130" as="geometry" />
        </mxCell>
        <mxCell id="-ILTjVAUCFsbDCht_4rs-62" value="" style="ellipse;whiteSpace=wrap;html=1;aspect=fixed;shadow=0;fontSize=18;align=left;strokeColor=none;" parent="1" vertex="1">
          <mxGeometry x="105" y="900" width="110" height="110" as="geometry" />
        </mxCell>
        <mxCell id="-ILTjVAUCFsbDCht_4rs-64" value="" style="ellipse;whiteSpace=wrap;html=1;aspect=fixed;shadow=0;fontSize=18;align=left;gradientColor=#d5739d;fillColor=#e6d0de;strokeColor=#996185;" parent="1" vertex="1">
          <mxGeometry x="825" y="890" width="130" height="130" as="geometry" />
        </mxCell>
        <mxCell id="-ILTjVAUCFsbDCht_4rs-65" value="" style="ellipse;whiteSpace=wrap;html=1;aspect=fixed;shadow=0;fontSize=18;align=left;strokeColor=none;" parent="1" vertex="1">
          <mxGeometry x="835" y="900" width="110" height="110" as="geometry" />
        </mxCell>
        <mxCell id="-ILTjVAUCFsbDCht_4rs-68" value="Ring Buffer" style="text;html=1;align=center;verticalAlign=middle;resizable=0;points=[];autosize=1;fontSize=18;" parent="1" vertex="1">
          <mxGeometry x="105" y="940" width="110" height="30" as="geometry" />
        </mxCell>
        <mxCell id="-ILTjVAUCFsbDCht_4rs-77" style="edgeStyle=orthogonalEdgeStyle;rounded=0;orthogonalLoop=1;jettySize=auto;html=1;entryX=0.5;entryY=0;entryDx=0;entryDy=0;fontSize=16;strokeWidth=2;gradientColor=#d5739d;fillColor=#e6d0de;strokeColor=#996185;" parent="1" target="-ILTjVAUCFsbDCht_4rs-71" edge="1">
          <mxGeometry relative="1" as="geometry">
            <mxPoint x="820" y="955" as="sourcePoint" />
          </mxGeometry>
        </mxCell>
        <mxCell id="-ILTjVAUCFsbDCht_4rs-69" value="Ring Buffer" style="text;html=1;align=center;verticalAlign=middle;resizable=0;points=[];autosize=1;fontSize=18;" parent="1" vertex="1">
          <mxGeometry x="835" y="940" width="110" height="30" as="geometry" />
        </mxCell>
        <mxCell id="-ILTjVAUCFsbDCht_4rs-76" style="edgeStyle=orthogonalEdgeStyle;rounded=0;orthogonalLoop=1;jettySize=auto;html=1;fontSize=16;gradientColor=#7ea6e0;fillColor=#dae8fc;strokeColor=#6c8ebf;strokeWidth=2;" parent="1" source="-ILTjVAUCFsbDCht_4rs-71" edge="1">
          <mxGeometry relative="1" as="geometry">
            <mxPoint x="230.00000000000045" y="955" as="targetPoint" />
          </mxGeometry>
        </mxCell>
        <mxCell id="-ILTjVAUCFsbDCht_4rs-71" value="网卡" style="rounded=0;whiteSpace=wrap;html=1;shadow=1;fontSize=16;align=center;direction=south;fillColor=#eeeeee;strokeColor=none;" parent="1" vertex="1">
          <mxGeometry x="440" y="910" width="190" height="90" as="geometry" />
        </mxCell>
        <mxCell id="-ILTjVAUCFsbDCht_4rs-74" value="DMA" style="text;html=1;align=center;verticalAlign=middle;resizable=0;points=[];autosize=1;fontSize=16;" parent="1" vertex="1">
          <mxGeometry x="310" y="930" width="50" height="20" as="geometry" />
        </mxCell>
        <mxCell id="-ILTjVAUCFsbDCht_4rs-75" value="DMA" style="text;html=1;align=center;verticalAlign=middle;resizable=0;points=[];autosize=1;fontSize=16;" parent="1" vertex="1">
          <mxGeometry x="690" y="930" width="50" height="20" as="geometry" />
        </mxCell>
        <mxCell id="-ILTjVAUCFsbDCht_4rs-78" value="网络包" style="ellipse;shape=cloud;whiteSpace=wrap;html=1;shadow=0;fontSize=16;align=center;fillColor=#ffcd28;gradientColor=#ffa500;strokeColor=none;" parent="1" vertex="1">
          <mxGeometry x="465" y="1060" width="145" height="90" as="geometry" />
        </mxCell>
        <mxCell id="-ILTjVAUCFsbDCht_4rs-79" value="" style="shape=flexArrow;endArrow=classic;html=1;fontSize=16;gradientColor=#7ea6e0;fillColor=#dae8fc;strokeColor=#6c8ebf;" parent="1" edge="1">
          <mxGeometry width="50" height="50" relative="1" as="geometry">
            <mxPoint x="510" y="1060" as="sourcePoint" />
            <mxPoint x="510" y="1000" as="targetPoint" />
          </mxGeometry>
        </mxCell>
        <mxCell id="-ILTjVAUCFsbDCht_4rs-80" value="" style="shape=flexArrow;endArrow=classic;html=1;fontSize=16;gradientColor=#d5739d;fillColor=#e6d0de;strokeColor=#996185;" parent="1" edge="1">
          <mxGeometry width="50" height="50" relative="1" as="geometry">
            <mxPoint x="580" y="1010" as="sourcePoint" />
            <mxPoint x="580" y="1070" as="targetPoint" />
          </mxGeometry>
        </mxCell>
      </root>
    </mxGraphModel>
  </diagram>
</mxfile>
